# Blender 4.2.2 LTS
# www.blender.org
mtllib d8hitbox.mtl
o d8_hitbox
v 0.707107 -0.577346 -0.408254
v -0.707107 0.577346 0.408254
v 0.000000 0.577359 -0.816490
v 0.000000 -0.577359 0.816490
v 0.707107 0.577346 0.408254
v -0.707107 -0.577346 -0.408254
vn 0.8165 0.3333 -0.4714
vn -0.0000 1.0000 -0.0000
vn -0.0000 0.3333 0.9428
vn 0.8165 -0.3333 0.4714
vn -0.0000 -0.3333 -0.9428
vn -0.8165 0.3333 -0.4714
vn -0.8165 -0.3333 0.4714
vn -0.0000 -1.0000 -0.0000
s 0
f 5//1 1//1 3//1
f 5//2 3//2 2//2
f 5//3 2//3 4//3
f 5//4 4//4 1//4
f 6//5 3//5 1//5
f 6//6 2//6 3//6
f 6//7 4//7 2//7
f 6//8 1//8 4//8
