# Blender 4.2.2 LTS
# www.blender.org
o Plane.024
v -40.000000 0.000000 40.000000
v 40.000000 0.000000 40.000000
v -40.000000 0.000000 -40.000000
v 40.000000 0.000000 -40.000000
v 13.680396 0.000000 -34.992012
v 10.748019 0.000000 -33.070797
v 7.916765 0.000000 -30.138420
v 6.703372 0.000000 -27.206055
v 6.501136 0.000000 -21.543550
v 8.523469 0.000000 -18.712288
v 12.871461 0.000000 -17.195551
v 16.410522 0.000000 -16.386608
v 19.747362 0.000000 -15.779920
v 20.960760 0.000000 -14.667640
v 22.477509 0.000000 -11.937499
v 24.398708 0.000000 -8.600659
v 26.421032 0.000000 -6.982803
v 29.757872 0.000000 -6.376109
v 32.488007 0.000000 -6.982803
v 33.802528 0.000000 -8.802900
v 34.510342 0.000000 -11.735263
v 34.510345 0.000000 -14.566522
v 34.105881 0.000000 -17.600012
v 33.296936 0.000000 -20.936836
v 31.577972 0.000000 -24.273682
v 29.252289 0.000000 -27.307177
v 26.623278 0.000000 -30.138420
v 25.005417 0.000000 -32.464100
v 23.387550 0.000000 -33.980835
v 21.365223 0.000000 -34.890896
v 17.623920 0.000000 -35.194244
v -40.000000 0.000000 40.000000
v 40.000000 0.000000 40.000000
v -40.000000 0.000000 -40.000000
vn -0.0000 -1.0000 -0.0000
vt 0.798293 0.802199
vt 0.886607 0.909057
vt 0.894520 0.906296
vt 0.798293 0.947801
vt 0.895992 0.938686
vt 0.890655 0.935189
vt 0.931695 0.913105
vt 0.943895 0.947801
vt 0.933167 0.907032
vt 0.933903 0.901511
vt 0.924333 0.924700
vt 0.928566 0.919179
vt 0.916604 0.934085
vt 0.919549 0.929852
vt 0.913660 0.936846
vt 0.903170 0.939054
vt 0.909979 0.938502
vt 0.885502 0.929852
vt 0.883294 0.924515
vt 0.882926 0.914210
vt 0.900961 0.904824
vt 0.907034 0.903720
vt 0.909243 0.901695
vt 0.912003 0.896726
vt 0.915500 0.890653
vt 0.919181 0.887709
vt 0.925254 0.886605
vt 0.930223 0.887709
vt 0.943895 0.802199
vt 0.932615 0.891021
vt 0.933903 0.896358
s 0
f 1/1/1 10/2/1 11/3/1
f 3/4/1 5/5/1 6/6/1
f 24/7/1 4/8/1 23/9/1
f 23/9/1 4/8/1 22/10/1
f 26/11/1 4/8/1 25/12/1
f 25/12/1 4/8/1 24/7/1
f 28/13/1 4/8/1 27/14/1
f 27/14/1 4/8/1 26/11/1
f 29/15/1 4/8/1 28/13/1
f 31/16/1 4/8/1 30/17/1
f 30/17/1 4/8/1 29/15/1
f 5/5/1 4/8/1 31/16/1
f 5/5/1 3/4/1 4/8/1
f 6/6/1 7/18/1 3/4/1
f 7/18/1 8/19/1 3/4/1
f 3/4/1 8/19/1 9/20/1
f 10/2/1 3/4/1 9/20/1
f 10/2/1 1/1/1 3/4/1
f 11/3/1 12/21/1 1/1/1
f 12/21/1 13/22/1 1/1/1
f 1/1/1 13/22/1 14/23/1
f 14/23/1 15/24/1 1/1/1
f 1/1/1 15/24/1 16/25/1
f 16/25/1 17/26/1 1/1/1
f 1/1/1 17/26/1 18/27/1
f 18/27/1 19/28/1 2/29/1
f 2/29/1 20/30/1 21/31/1
f 2/29/1 1/1/1 18/27/1
f 20/30/1 2/29/1 19/28/1
f 21/31/1 22/10/1 2/29/1
f 2/29/1 22/10/1 4/8/1
l 34 32
l 32 33
