# Blender 4.2.2 LTS
# www.blender.org
mtllib flower.mtl
o Icosphere.009
v 0.000000 0.404622 0.000000
v 0.179199 0.541519 0.130194
v -0.068446 0.541519 0.210660
v -0.221503 0.541519 0.000000
v -0.068446 0.541519 -0.210660
v 0.179199 0.541519 -0.130194
v 0.068446 0.763024 0.210660
v -0.179199 0.763024 0.130194
v -0.179199 0.763024 -0.130194
v 0.068446 0.763024 -0.210660
v 0.221503 0.763024 0.000000
v 0.000000 0.750765 0.000000
v -0.089599 0.684939 0.065097
v 0.034223 0.684939 0.105330
v -0.089599 0.684939 -0.065097
v 0.034223 0.684939 -0.105330
v 0.110752 0.684939 0.000000
vn 0.1876 -0.7947 0.5774
vn 0.6071 -0.7947 -0.0000
vn -0.4911 -0.7947 0.3568
vn -0.4911 -0.7947 -0.3568
vn 0.1876 -0.7947 -0.5774
vn 0.9822 -0.1876 -0.0000
vn 0.3035 -0.1876 0.9342
vn -0.7946 -0.1876 0.5774
vn -0.7946 -0.1876 -0.5774
vn 0.3035 -0.1876 -0.9342
vn 0.7946 0.1876 0.5774
vn -0.3035 0.1876 0.9342
vn -0.9822 0.1876 -0.0000
vn -0.3035 0.1876 -0.9342
vn 0.7946 0.1876 -0.5774
vn -0.5315 0.7539 -0.3862
vn 0.2030 0.7539 -0.6248
vn 0.6570 0.7539 -0.0000
vn 0.2030 0.7539 0.6248
vn -0.5315 0.7539 0.3862
vn -0.1830 0.8059 0.5631
vn -0.5921 0.8059 -0.0000
vn -0.1830 0.8059 -0.5631
vn 0.4790 0.8059 -0.3480
vn 0.4790 0.8059 0.3480
vt 0.875147 0.044738
vt 0.961514 0.400421
vt 0.842159 0.400421
vt 0.768392 0.400421
vt 0.842159 0.400421
vt 0.981903 0.975932
vt 0.908136 0.975932
vt 0.788781 0.975932
vt 0.908136 0.975931
vt 0.928525 0.773053
vt 0.891642 0.773053
vt 0.831964 0.773053
vt 0.280577 0.803369
vt 0.414159 0.759965
vt 0.377239 0.873597
vt 0.280577 0.943826
vt 0.414159 0.987230
vt 0.496720 0.873597
s 0
usemtl Material.003
f 1/1/1 2/2/1 3/3/1
f 2/2/2 1/1/2 6/2/2
f 1/1/3 3/3/3 4/4/3
f 1/1/4 4/4/4 5/5/4
f 1/1/5 5/5/5 6/2/5
f 2/2/6 6/2/6 11/6/6
f 3/3/7 2/2/7 7/7/7
f 4/4/8 3/3/8 8/8/8
f 5/5/9 4/4/9 9/8/9
f 6/2/10 5/5/10 10/9/10
f 2/2/11 11/6/11 7/7/11
f 3/3/12 7/7/12 8/8/12
f 4/4/13 8/8/13 9/8/13
f 5/5/14 9/8/14 10/9/14
f 6/2/15 10/9/15 11/6/15
f 7/7/16 11/6/16 17/10/16 14/11/16
f 8/8/17 7/7/17 14/11/17 13/12/17
f 9/8/18 8/8/18 13/12/18 15/12/18
f 10/9/19 9/8/19 15/12/19 16/11/19
f 11/6/20 10/9/20 16/11/20 17/10/20
f 13/13/21 14/14/21 12/15/21
f 15/16/22 13/13/22 12/15/22
f 16/17/23 15/16/23 12/15/23
f 17/18/24 16/17/24 12/15/24
f 14/14/25 17/18/25 12/15/25
o Cylinder.008
v 0.050000 -0.014769 -0.000000
v 0.050000 0.485231 -0.000000
v 0.015451 -0.014769 0.047553
v 0.015451 0.485231 0.047553
v -0.040451 -0.014769 0.029389
v -0.040451 0.485231 0.029389
v -0.040451 -0.014769 -0.029389
v -0.040451 0.485231 -0.029389
v 0.015451 -0.014769 -0.047553
v 0.015451 0.485231 -0.047553
vn 0.8090 -0.0000 0.5878
vn -0.3090 -0.0000 0.9511
vn -1.0000 -0.0000 -0.0000
vn -0.0000 1.0000 -0.0000
vn -0.3090 -0.0000 -0.9511
vn 0.8090 -0.0000 -0.5878
vn -0.0000 -1.0000 -0.0000
vt 0.714595 0.022198
vt 0.714595 0.984910
vt 0.648073 0.984910
vt 0.648073 0.022198
vt 0.540439 0.984910
vt 0.540439 0.022198
s 0
usemtl Material.003
f 18/19/26 19/20/26 21/21/26 20/22/26
f 20/22/27 21/21/27 23/23/27 22/24/27
f 22/24/28 23/23/28 25/23/28 24/24/28
f 21/21/29 19/20/29 27/21/29 25/23/29 23/23/29
f 24/24/30 25/23/30 27/21/30 26/22/30
f 26/22/31 27/21/31 19/20/31 18/19/31
f 18/19/32 20/22/32 22/24/32 24/24/32 26/22/32
